<svg width="72" height="72" viewBox="0 0 72 72" fill="none" xmlns="http://www.w3.org/2000/svg">
<path fill-rule="evenodd" clip-rule="evenodd" d="M41.9514 7.62483C42.2133 8.13279 42.2784 8.78331 42.4083 10.0843C42.6546 12.5469 42.7779 13.7782 43.2933 14.4538C43.947 15.3107 45.0102 15.7511 46.0785 15.6074C46.9206 15.4942 47.8782 14.7106 49.7937 13.1434C50.8056 12.3155 51.3114 11.9015 51.8559 11.7275C52.5474 11.5066 53.2956 11.5439 53.9616 11.8326C54.486 12.0598 54.9483 12.5221 55.8729 13.4466L58.5534 16.127C59.4777 17.0515 59.94 17.5138 60.1674 18.0383C60.456 18.7043 60.4932 19.4525 60.2724 20.1439C60.0984 20.6884 59.6844 21.1943 58.8564 22.2063C57.2892 24.1218 56.5056 25.0795 56.3925 25.9217C56.2488 26.9899 56.6892 28.0531 57.546 28.7068C58.2216 29.2222 59.4528 29.3453 61.9155 29.5915C63.2166 29.7217 63.8673 29.7867 64.3752 30.0486C65.0202 30.3816 65.523 30.9369 65.7897 31.6119C66 32.1435 66 32.7972 66 34.1046V37.8957C66 39.2028 66 39.8565 65.79 40.3878C65.523 41.0631 65.0202 41.6187 64.3749 41.9514C63.867 42.2133 63.2166 42.2784 61.9158 42.4083C59.454 42.6546 58.2231 42.7776 57.5475 43.2927C56.6901 43.9467 56.2497 45.0102 56.3937 46.0788C56.5071 46.9206 57.2904 47.8779 58.857 49.7928C59.6847 50.8044 60.0984 51.3102 60.2724 51.8544C60.4935 52.5462 60.456 53.2944 60.1674 53.9607C59.94 54.4851 59.478 54.9471 58.5537 55.8714L55.8729 58.5522C54.9486 59.4765 54.4863 59.9388 53.9619 60.1662C53.2956 60.4548 52.5477 60.492 51.8562 60.2712C51.3117 60.0972 50.8056 59.6832 49.7937 58.8552C47.8782 57.288 46.9206 56.5044 46.0785 56.3913C45.0102 56.2476 43.947 56.688 43.2933 57.5448C42.7779 58.2204 42.6549 59.4519 42.4086 61.9149C42.2784 63.2166 42.2133 63.8673 41.9511 64.3755C41.6184 65.0205 41.0631 65.5227 40.3884 65.7897C39.8568 66 39.2028 66 37.8948 66H34.1046C32.7972 66 32.1435 66 31.6119 65.7897C30.9369 65.523 30.3816 65.0202 30.0486 64.3752C29.7867 63.8673 29.7217 63.2166 29.5915 61.9155C29.3453 59.4528 29.2222 58.2216 28.7068 57.546C28.053 56.6892 26.9899 56.2488 25.9217 56.3925C25.0795 56.5056 24.1218 57.2892 22.2062 58.8567H22.2062C21.1942 59.6847 20.6882 60.0987 20.1437 60.2724C19.4523 60.4935 18.7042 60.456 18.0382 60.1674C17.5137 59.9403 17.0514 59.478 16.1268 58.5534L13.4465 55.8729C12.5219 54.9486 12.0596 54.4863 11.8324 53.9619C11.5438 53.2956 11.5065 52.5477 11.7274 51.8562C11.9013 51.3117 12.3153 50.8056 13.1433 49.7937C14.7105 47.8782 15.4941 46.9206 15.6074 46.0782C15.7511 45.0102 15.3107 43.947 14.4538 43.2933C13.7782 42.7779 12.5469 42.6546 10.0843 42.4083C8.78328 42.2784 8.13279 42.2133 7.62483 41.9514C6.97968 41.6184 6.47706 41.0631 6.21015 40.3881C6 39.8565 6 39.2028 6 37.8954V34.1049C6 32.7972 6 32.1432 6.21024 31.6116C6.47715 30.9369 6.97962 30.3816 7.62456 30.0489C8.13264 29.7867 8.78331 29.7217 10.0847 29.5915H10.0847C12.5479 29.3452 13.7796 29.222 14.4553 28.7064C15.3118 28.0528 15.7521 26.9899 15.6086 25.922C15.4954 25.0796 14.7115 24.1216 13.1438 22.2055C12.3155 21.1931 11.9013 20.6868 11.7274 20.1421C11.5067 19.4509 11.544 18.7031 11.8324 18.0373C12.0596 17.5126 12.5221 17.0502 13.447 16.1253L16.1269 13.4453H16.127C17.0515 12.5207 17.5139 12.0584 18.0383 11.8312C18.7043 11.5426 19.4524 11.5053 20.1439 11.7262C20.6884 11.9001 21.1944 12.3142 22.2066 13.1423C24.1218 14.7093 25.0795 15.4928 25.9213 15.6062C26.9898 15.7501 28.0534 15.3096 28.7072 14.4523C29.2223 13.7768 29.3454 12.5459 29.5916 10.0839C29.7217 8.78328 29.7867 8.13294 30.0486 7.6251C30.3813 6.97974 30.9369 6.47694 31.6122 6.21003C32.1435 6 32.7972 6 34.1043 6H37.8954C39.2028 6 39.8565 6 40.3881 6.21015C41.0631 6.47706 41.6184 6.97968 41.9514 7.62483ZM36 48C42.6273 48 48 42.6273 48 36C48 29.3726 42.6273 24 36 24C29.3726 24 24 29.3726 24 36C24 42.6273 29.3726 48 36 48Z" fill="white"/>
</svg>
