<svg width="48" height="48" viewBox="0 0 48 48" fill="none" xmlns="http://www.w3.org/2000/svg">
<path d="M4 24L2.43826 22.7506L1.43875 24L2.43826 25.2494L4 24ZM22 26C23.1046 26 24 25.1046 24 24C24 22.8954 23.1046 22 22 22V26ZM10.4383 12.7506L2.43826 22.7506L5.56174 25.2494L13.5617 15.2494L10.4383 12.7506ZM2.43826 25.2494L10.4383 35.2494L13.5617 32.7506L5.56174 22.7506L2.43826 25.2494ZM4 26H22V22H4V26Z" fill="white"/>
<path d="M20 16.2639V14.777C20 11.5403 20 9.922 20.948 8.803C21.8958 7.68402 23.4922 7.41798 26.6848 6.88586L30.0272 6.3288C36.5134 5.24776 39.7564 4.70726 41.8782 6.50464C44 8.30204 44 11.5899 44 18.1655V29.8344C44 36.4102 44 39.698 41.8782 41.4954C39.7564 43.2928 36.5134 42.7522 30.0272 41.6712L26.6848 41.1142C23.4922 40.582 21.8958 40.316 20.948 39.197C20 38.078 20 36.4596 20 33.223V32.132" stroke="white" stroke-width="2"/>
</svg>
