<svg width="48" height="48" viewBox="0 0 48 48" fill="none" xmlns="http://www.w3.org/2000/svg">
<path d="M24 22C27.3137 22 30 19.3137 30 16C30 12.6863 27.3137 10 24 10C20.6863 10 18 12.6863 18 16C18 19.3137 20.6863 22 24 22Z" stroke="white" stroke-width="2" stroke-linecap="round"/>
<path d="M30.5358 16C31.0664 15.0813 31.94 14.4109 32.9648 14.1363C33.9894 13.8617 35.0812 14.0055 36 14.5359C36.9188 15.0663 37.5892 15.94 37.8638 16.9647C38.1382 17.9894 37.9946 19.0813 37.4642 20C36.9336 20.9188 36.06 21.5892 35.0352 21.8638C34.0106 22.1382 32.9188 21.9946 32 21.4642C31.0812 20.9336 30.4108 20.06 30.1362 19.0353C29.8618 18.0106 30.0054 16.9187 30.5358 16Z" stroke="white" stroke-width="2"/>
<path d="M10.5359 16C11.0664 15.0813 11.94 14.4109 12.9647 14.1363C13.9895 13.8617 15.0813 14.0055 16 14.5359C16.9188 15.0663 17.5892 15.94 17.8637 16.9647C18.1383 17.9894 17.9946 19.0813 17.4641 20C16.9337 20.9188 16.06 21.5892 15.0353 21.8638C14.0106 22.1382 12.9188 21.9946 12 21.4642C11.0813 20.9336 10.4109 20.06 10.1363 19.0353C9.86173 18.0106 10.0055 16.9187 10.5359 16Z" stroke="white" stroke-width="2"/>
<path d="M33.7632 36L31.8026 36.3948L32.1258 38H33.7632V36ZM41.4404 33.8084L43.3254 33.1398L41.4404 33.8084ZM29.5616 29.421L28.352 27.8284L26.0388 29.5854L28.5054 31.1194L29.5616 29.421ZM39.7344 34H33.7632V38H39.7344V34ZM39.5554 34.4768C39.5414 34.4372 39.5284 34.362 39.545 34.2708C39.5608 34.1842 39.5964 34.1186 39.6302 34.0766C39.6948 33.9964 39.748 34 39.7344 34V38C42.0264 38 44.2828 35.8388 43.3254 33.1398L39.5554 34.4768ZM34 30C37.2832 30 38.8054 32.3622 39.5554 34.4768L43.3254 33.1398C42.3952 30.5176 39.897 26 34 26V30ZM30.7714 31.0138C31.5404 30.4296 32.564 30 34 30V26C31.6762 26 29.8056 26.7244 28.352 27.8284L30.7714 31.0138ZM28.5054 31.1194C30.5836 32.412 31.4542 34.6648 31.8026 36.3948L35.7238 35.6052C35.288 33.4408 34.0748 29.8728 30.618 27.7228L28.5054 31.1194Z" fill="white"/>
<path d="M18.4383 29.421L19.4946 31.1194L21.9612 29.5854L19.648 27.8284L18.4383 29.421ZM6.55957 33.8082L8.44451 34.4768L6.55957 33.8082ZM14.2367 36V38H15.874L16.1973 36.3948L14.2367 36ZM14 30C15.436 30 16.4597 30.4296 17.2286 31.0138L19.648 27.8284C18.1944 26.7242 16.3238 26 14 26V30ZM8.44451 34.4768C9.19461 32.3622 10.7168 30 14 30V26C8.10297 26 5.60473 30.5174 4.67463 33.1398L8.44451 34.4768ZM8.26553 34C8.25197 34 8.30525 33.9964 8.36969 34.0766C8.40349 34.1186 8.43919 34.1842 8.45493 34.2708C8.47157 34.362 8.45859 34.4372 8.44451 34.4768L4.67463 33.1398C3.71725 35.8388 5.97351 38 8.26553 38V34ZM14.2367 34H8.26553V38H14.2367V34ZM16.1973 36.3948C16.5458 34.6648 17.4163 32.412 19.4946 31.1194L17.3821 27.7228C13.9251 29.8726 12.712 33.4406 12.2761 35.6052L16.1973 36.3948Z" fill="white"/>
<path d="M24 28C31.143 28 33.1838 33.1024 33.7668 36.0178C33.9834 37.1008 33.1046 38 32 38H16C14.8955 38 14.0166 37.1008 14.2332 36.0178C14.8162 33.1024 16.8569 28 24 28Z" stroke="white" stroke-width="2" stroke-linecap="round"/>
</svg>
